<?xml version="1.0" standalone="no"?>
<!DOCTYPE svg PUBLIC "-//W3C//DTD SVG 20010904//EN"
 "http://www.w3.org/TR/2001/REC-SVG-20010904/DTD/svg10.dtd">
<svg version="1.0" xmlns="http://www.w3.org/2000/svg"
 width="896.000000pt" height="896.000000pt" viewBox="0 0 896.000000 896.000000"
 preserveAspectRatio="xMidYMid meet">
<metadata>
Created by potrace 1.11, written by Peter Selinger 2001-2013
</metadata>
<g transform="translate(0.000000,896.000000) scale(0.100000,-0.100000)"
fill="#000000" stroke="none">
<path d="M4425 8473 c-50 -11 -187 -59 -255 -91 -260 -120 -524 -330 -658
-525 -57 -83 -122 -213 -122 -245 0 -13 -32 -45 -87 -90 -228 -182 -378 -373
-518 -657 -185 -376 -266 -783 -233 -1165 8 -96 52 -310 70 -344 10 -18 6 -18
-68 -12 -233 20 -414 23 -598 12 -66 -4 -127 -9 -135 -11 -9 -2 -45 -6 -81
-10 -36 -4 -74 -9 -85 -11 -11 -3 -36 -7 -55 -10 -19 -3 -64 -12 -100 -20 -36
-9 -76 -18 -90 -20 -68 -14 -210 -64 -210 -75 0 -19 24 -19 78 0 109 37 314
84 427 97 33 3 63 8 66 10 15 9 225 18 409 18 173 1 322 -6 415 -19 11 -1 25
-3 31 -4 6 0 23 -34 39 -73 15 -40 43 -103 61 -140 38 -76 41 -72 -60 -83 -66
-8 -83 -10 -175 -30 -41 -8 -72 -10 -82 -4 -30 16 -298 4 -354 -16 -95 -33
-146 -82 -200 -191 -33 -67 -40 -75 -130 -134 -52 -34 -95 -66 -95 -70 0 -25
27 -16 95 30 41 28 75 45 75 38 0 -7 -5 -42 -11 -78 -12 -71 -14 -247 -4 -331
18 -156 39 -288 50 -316 8 -17 17 -58 21 -90 3 -32 7 -64 8 -70 5 -31 53 -77
104 -101 73 -33 184 -42 231 -18 17 9 45 39 62 66 17 28 34 50 38 50 4 0 24
16 44 36 20 20 40 34 44 33 5 -2 68 -42 141 -88 l132 -83 -28 -22 c-15 -11
-36 -29 -47 -39 -79 -73 -343 -247 -375 -247 -4 0 -27 -9 -51 -19 -91 -40
-359 -97 -359 -77 -7 143 -8 150 -28 167 -16 13 -22 32 -26 89 -6 90 -29 119
-99 127 -89 10 -215 -42 -246 -101 -13 -24 -13 -32 4 -74 12 -28 19 -67 18
-98 -2 -32 7 -76 22 -119 l23 -68 -56 -43 c-67 -50 -121 -118 -158 -199 -37
-80 -42 -203 -12 -285 37 -99 97 -169 193 -226 54 -31 171 -64 230 -64 l42 0
38 -130 c45 -156 61 -188 106 -212 65 -35 185 -18 240 33 16 15 67 54 114 88
46 33 133 96 193 140 l109 79 -1 -191 c0 -106 3 -219 6 -253 19 -166 76 -370
151 -540 35 -77 36 -86 36 -185 -2 -193 32 -271 111 -254 88 19 229 211 279
380 7 22 15 47 18 55 22 57 31 201 32 530 1 184 3 346 5 360 2 14 7 50 11 80
10 76 44 235 50 228 5 -6 17 -295 14 -333 -15 -196 4 -293 82 -410 25 -38 52
-88 59 -110 7 -22 18 -49 23 -60 6 -11 12 -22 12 -25 3 -16 19 -56 24 -60 20
-16 41 -72 36 -97 -9 -51 -7 -168 4 -211 19 -68 69 -88 143 -58 34 15 35 14
53 -16 10 -17 25 -38 34 -47 10 -10 24 -26 32 -38 22 -32 98 -120 173 -203 42
-46 80 -100 98 -140 17 -36 41 -89 55 -118 94 -200 231 -167 298 72 22 79 26
112 30 246 5 145 -13 246 -75 423 -21 59 -37 107 -35 107 1 0 27 -11 56 -24
54 -23 82 -31 149 -42 94 -15 246 8 318 48 17 10 32 16 32 13 0 -11 138 76
198 124 82 67 140 134 182 212 34 64 35 65 94 15 l29 -24 -13 -94 c-8 -51 -14
-136 -15 -188 -1 -52 -8 -125 -15 -161 -16 -82 -7 -111 59 -182 81 -87 205
-140 307 -131 40 3 55 11 99 53 32 30 68 54 92 60 98 27 374 256 549 457 137
157 222 294 275 443 40 113 38 195 -9 289 -36 73 -52 94 -130 178 -31 34 -72
80 -90 102 -31 40 -60 54 -140 68 -13 3 -57 16 -97 29 -217 73 -377 46 -516
-86 -34 -32 -65 -59 -68 -59 -3 0 -17 14 -31 32 -14 17 -76 93 -139 167 -145
174 -141 169 -305 363 l-139 164 -2 105 c-1 57 -5 117 -10 132 -7 26 -6 28 20
23 16 -3 47 -8 69 -11 23 -3 57 -8 76 -11 66 -10 405 -12 484 -3 252 29 493
110 652 220 69 47 165 144 209 212 20 31 39 57 41 57 13 0 165 -77 201 -101
23 -16 44 -29 48 -29 10 0 156 -110 225 -169 145 -126 278 -278 341 -391 23
-40 49 -53 49 -25 0 8 -15 39 -34 68 -156 244 -443 495 -726 637 -47 23 -86
44 -88 45 -2 1 5 30 15 64 19 66 24 69 84 58 232 -43 545 -199 784 -390 71
-57 224 -213 264 -269 32 -45 61 -62 61 -36 0 36 -186 237 -315 339 -76 61
-201 149 -211 149 -3 0 -18 8 -32 19 -61 43 -259 136 -372 174 -76 26 -94 31
-186 49 l-51 9 1 99 1 99 55 58 c30 31 57 60 61 63 3 3 30 37 60 75 48 61 74
100 158 235 132 213 270 595 307 847 3 26 8 57 10 68 3 11 7 75 11 143 l6 123
61 62 c72 73 116 144 166 270 40 99 95 308 105 396 4 30 9 63 11 75 2 12 5 77
5 146 1 213 -29 287 -146 356 -72 42 -191 74 -330 90 -71 8 -317 8 -395 0 -30
-3 -87 -8 -126 -12 l-71 -6 -64 49 c-145 113 -372 244 -569 328 -151 64 -399
141 -555 171 -22 4 -44 8 -50 9 -11 3 -129 20 -205 31 -25 3 -65 7 -90 8 -43
3 -46 6 -71 52 -105 198 -211 329 -314 390 -39 22 -62 28 -114 30 -36 0 -75
-1 -86 -3z m-1587 -3578 c129 -206 325 -413 592 -628 l35 -28 -33 7 c-35 6
-97 -20 -138 -57 -11 -11 -23 -17 -25 -14 -8 7 -542 114 -590 118 -10 1 -19 3
-19 5 0 2 11 42 25 90 40 139 47 238 24 319 -16 59 -101 147 -181 188 -32 17
-58 33 -58 36 0 4 21 10 48 14 26 5 54 10 62 12 8 2 33 6 55 9 22 4 60 10 85
13 25 4 50 6 55 4 6 -2 34 -42 63 -88z m-222 -2120 c-5 -14 -49 -153 -51 -165
-1 -3 -5 -23 -10 -45 -4 -22 -11 -47 -16 -56 -7 -13 -227 -167 -294 -205 -11
-7 -56 -32 -100 -58 -48 -28 -86 -44 -97 -40 -15 4 -48 10 -80 13 -7 1 -31 80
-42 136 -5 28 -2 32 55 65 33 19 76 52 96 73 l35 39 21 -20 c33 -31 72 -43
104 -31 55 19 104 126 97 217 -2 34 1 42 14 43 39 1 107 12 175 29 93 23 100
23 93 5z m2223 -605 c40 -30 84 -65 99 -77 15 -12 54 -42 86 -67 36 -28 54
-47 45 -50 -238 -72 -249 -74 -336 -46 -77 26 -174 113 -217 197 -20 41 -20
49 2 74 11 10 36 48 56 84 l38 64 78 -62 c43 -34 110 -87 149 -117z"/>
</g>
</svg>
